<?xml version="1.0" encoding="UTF-8" standalone="no"?>
<!-- Created with Inkscape (http://www.inkscape.org/) -->

<svg
   width="210mm"
   height="297mm"
   viewBox="0 0 210 297"
   version="1.1"
   id="svg1"
   xml:space="preserve"
   inkscape:version="1.3.2 (091e20e, 2023-11-25, custom)"
   sodipodi:docname="SQ-c#.svg"
   xmlns:inkscape="http://www.inkscape.org/namespaces/inkscape"
   xmlns:sodipodi="http://sodipodi.sourceforge.net/DTD/sodipodi-0.dtd"
   xmlns="http://www.w3.org/2000/svg"
   xmlns:svg="http://www.w3.org/2000/svg"><sodipodi:namedview
     id="namedview1"
     pagecolor="#ffffff"
     bordercolor="#000000"
     borderopacity="0.25"
     inkscape:showpageshadow="2"
     inkscape:pageopacity="0.0"
     inkscape:pagecheckerboard="0"
     inkscape:deskcolor="#d1d1d1"
     inkscape:document-units="mm"
     inkscape:zoom="11.716498"
     inkscape:cx="385.35405"
     inkscape:cy="441.42883"
     inkscape:window-width="1920"
     inkscape:window-height="1018"
     inkscape:window-x="-6"
     inkscape:window-y="-6"
     inkscape:window-maximized="1"
     inkscape:current-layer="layer1" /><defs
     id="defs1"><inkscape:path-effect
       effect="fillet_chamfer"
       id="path-effect2"
       is_visible="true"
       lpeversion="1"
       nodesatellites_param="F,0,0,1,0,1.5875,0,1 @ F,0,0,1,0,1.5875,0,1 @ F,0,0,1,0,1.5875,0,1 @ F,0,0,1,0,1.5875,0,1"
       radius="6"
       unit="px"
       method="auto"
       mode="F"
       chamfer_steps="1"
       flexible="false"
       use_knot_distance="true"
       apply_no_radius="true"
       apply_with_radius="true"
       only_selected="false"
       hide_knots="false" /><inkscape:path-effect
       effect="fillet_chamfer"
       id="path-effect1"
       is_visible="true"
       lpeversion="1"
       nodesatellites_param="F,0,0,1,0,1.3229167,0,1 @ F,0,0,1,0,1.3229167,0,1 @ F,0,0,1,0,1.3229167,0,1 @ F,0,0,1,0,1.3229167,0,1"
       radius="5"
       unit="px"
       method="auto"
       mode="F"
       chamfer_steps="1"
       flexible="false"
       use_knot_distance="true"
       apply_no_radius="true"
       apply_with_radius="true"
       only_selected="false"
       hide_knots="false" /><inkscape:path-effect
       effect="fillet_chamfer"
       id="path-effect4"
       is_visible="true"
       lpeversion="1"
       nodesatellites_param="F,0,0,1,0,6,0,1 @ F,0,0,1,0,6,0,1 @ F,0,0,1,0,6,0,1 @ F,0,0,1,0,6,0,1"
       radius="6"
       unit="mm"
       method="auto"
       mode="F"
       chamfer_steps="1"
       flexible="false"
       use_knot_distance="true"
       apply_no_radius="true"
       apply_with_radius="true"
       only_selected="false"
       hide_knots="false" /></defs><g
     inkscape:label="Layer 1"
     inkscape:groupmode="layer"
     id="layer1"><path
       style="fill:#9b3395;fill-opacity:1;stroke:none;stroke-width:0.0759096"
       id="rect1"
       width="9.4240913"
       height="9.4240904"
       x="96.737778"
       y="110.82903"
       sodipodi:type="rect"
       transform="matrix(1.0080547,0,0,1.0080548,-0.77919822,-0.892711)"
       inkscape:path-effect="#path-effect2"
       d="m 98.325278,110.82903 h 6.249092 a 1.5875,1.5875 45 0 1 1.5875,1.5875 l 0,6.24909 a 1.5875,1.5875 135 0 1 -1.5875,1.5875 h -6.249092 a 1.5875,1.5875 45 0 1 -1.5875,-1.5875 l 0,-6.24909 a 1.5875,1.5875 135 0 1 1.5875,-1.5875 z" /><path
       fill="#68217a"
       d="m 104.62212,114.70735 h -0.32181 l -0.0805,0.40227 h -0.25477 l 0.0804,-0.40227 h -0.32851 l -0.0805,0.40227 h -0.35533 v 0.33522 h 0.29499 l -0.0603,0.26818 h -0.23466 v 0.33522 h 0.16761 l -0.0804,0.40228 h 0.32182 l 0.0804,-0.40228 h 0.25477 l -0.0805,0.40228 h 0.32852 l 0.0804,-0.40228 h 0.33523 v -0.33522 h -0.27488 l 0.0603,-0.26818 h 0.21455 v -0.33522 h -0.1475 z m -0.52966,1.00567 h -0.25476 l 0.0603,-0.26818 h 0.25477 z m 1.0325,-2.19236 c -0.0402,-0.0738 -0.0939,-0.1408 -0.1542,-0.17432 l -3.22486,-1.86385 c -0.0537,-0.0335 -0.12739,-0.047 -0.20784,-0.047 -0.0804,0 -0.1542,0.0201 -0.20784,0.047 l -3.251678,1.86385 c -0.113976,0.067 -0.227952,0.23466 -0.227952,0.36204 v 3.7344 c 0,0.0737 0.04693,0.1542 0.09386,0.22795 l 0.0067,0.007 c 0.03352,0.0537 0.08716,0.10057 0.13409,0.12739 l 3.23827,1.87055 c 0.0537,0.0335 0.13409,0.0469 0.21455,0.0469 0.0804,0 0.1542,-0.0201 0.20783,-0.0469 l 3.18463,-1.87055 c 0.11398,-0.067 0.16091,-0.23466 0.16091,-0.36205 v -3.73439 c 0,-0.0537 0.0268,-0.12068 0,-0.17432 z m -0.28159,0.14079 c 0,0.0201 -0.0201,0.0335 -0.0201,0.047 v 3.7344 c 0,0.0537 -0.0134,0.11398 -0.0268,0.1341 l -3.19135,1.86384 c -0.007,0.007 -0.0335,0.0134 -0.0737,0.0134 -0.0402,0 -0.067,-0.007 -0.0738,-0.0134 l -3.231557,-1.86384 c 0,0 -0.0067,-0.007 -0.01341,-0.007 l -0.04023,-0.0402 c -0.02682,-0.0469 0.01341,-0.0738 -0.05363,-0.0804 v -3.7344 c 0.06705,-0.0335 0.06034,-0.11398 0.09386,-0.12738 l 3.238267,-1.87056 c 0.007,0 0.0402,-0.0134 0.0804,-0.0134 0.0402,0 0.067,0.007 0.0738,0.0134 l 3.21815,1.85715 0.0268,0.0603 c 0.007,0.007 -0.007,0.0202 -0.007,0.0268 z m -3.30531,3.56009 c -0.9051,0 -1.642603,-0.7375 -1.642603,-1.64261 0,-0.9051 0.737503,-1.6426 1.642603,-1.6426 0.61011,0 1.14646,0.33523 1.42806,0.83807 l 0.87158,-0.50284 c -0.45591,-0.79784 -1.31408,-1.34089 -2.29964,-1.34089 -1.46158,0 -2.648275,1.18669 -2.648275,2.64826 0,1.46158 1.186695,2.64827 2.648275,2.64827 0.97885,0 1.83703,-0.53636 2.29293,-1.32748 l -0.86487,-0.50955 c -0.2816,0.49614 -0.81795,0.83137 -1.42806,0.83137 z"
       id="path1-3"
       style="fill:#ffffff;fill-opacity:1;stroke-width:0.0670448" /></g></svg>
