<?xml version="1.0" encoding="UTF-8" standalone="no"?>
<!-- Created with Inkscape (http://www.inkscape.org/) -->

<svg
   width="9.4999924mm"
   height="9.5mm"
   viewBox="0 0 9.4999924 9.5"
   version="1.1"
   id="svg1"
   xml:space="preserve"
   inkscape:version="1.3.2 (091e20e, 2023-11-25, custom)"
   sodipodi:docname="SQ-circleClosed.svg"
   xmlns:inkscape="http://www.inkscape.org/namespaces/inkscape"
   xmlns:sodipodi="http://sodipodi.sourceforge.net/DTD/sodipodi-0.dtd"
   xmlns="http://www.w3.org/2000/svg"
   xmlns:svg="http://www.w3.org/2000/svg"><sodipodi:namedview
     id="namedview1"
     pagecolor="#ffffff"
     bordercolor="#000000"
     borderopacity="0.25"
     inkscape:showpageshadow="2"
     inkscape:pageopacity="0.0"
     inkscape:pagecheckerboard="0"
     inkscape:deskcolor="#d1d1d1"
     inkscape:document-units="mm"
     inkscape:zoom="11.716498"
     inkscape:cx="15.533652"
     inkscape:cy="15.277603"
     inkscape:window-width="1920"
     inkscape:window-height="1018"
     inkscape:window-x="-6"
     inkscape:window-y="-6"
     inkscape:window-maximized="1"
     inkscape:current-layer="layer1" /><defs
     id="defs1"><inkscape:path-effect
       effect="fillet_chamfer"
       id="path-effect2"
       is_visible="true"
       lpeversion="1"
       nodesatellites_param="F,0,0,1,0,1.5875,0,1 @ F,0,0,1,0,1.5875,0,1 @ F,0,0,1,0,1.5875,0,1 @ F,0,0,1,0,1.5875,0,1"
       radius="6"
       unit="px"
       method="auto"
       mode="F"
       chamfer_steps="1"
       flexible="false"
       use_knot_distance="true"
       apply_no_radius="true"
       apply_with_radius="true"
       only_selected="false"
       hide_knots="false" /><inkscape:path-effect
       effect="fillet_chamfer"
       id="path-effect1"
       is_visible="true"
       lpeversion="1"
       nodesatellites_param="F,0,0,1,0,1.3229167,0,1 @ F,0,0,1,0,1.3229167,0,1 @ F,0,0,1,0,1.3229167,0,1 @ F,0,0,1,0,1.3229167,0,1"
       radius="5"
       unit="px"
       method="auto"
       mode="F"
       chamfer_steps="1"
       flexible="false"
       use_knot_distance="true"
       apply_no_radius="true"
       apply_with_radius="true"
       only_selected="false"
       hide_knots="false" /><inkscape:path-effect
       effect="fillet_chamfer"
       id="path-effect4"
       is_visible="true"
       lpeversion="1"
       nodesatellites_param="F,0,0,1,0,6,0,1 @ F,0,0,1,0,6,0,1 @ F,0,0,1,0,6,0,1 @ F,0,0,1,0,6,0,1"
       radius="6"
       unit="mm"
       method="auto"
       mode="F"
       chamfer_steps="1"
       flexible="false"
       use_knot_distance="true"
       apply_no_radius="true"
       apply_with_radius="true"
       only_selected="false"
       hide_knots="false" /></defs><g
     inkscape:label="Layer 1"
     inkscape:groupmode="layer"
     id="layer1"
     transform="translate(-95.606578,-110.60109)"><path
       d="m 100.35657,111.39276 q -0.804034,0 -1.536944,0.31543 -0.732905,0.31543 -1.261713,0.84424 -0.528809,0.52881 -0.844239,1.26172 -0.315433,0.73291 -0.315433,1.53694 0,0.80403 0.315433,1.53695 0.31543,0.73291 0.844239,1.26171 0.528808,0.52882 1.261713,0.84425 0.73291,0.31543 1.536944,0.31543 0.80404,0 1.53694,-0.31543 0.73292,-0.31543 1.26173,-0.84425 0.52881,-0.5288 0.84423,-1.26171 0.31543,-0.73292 0.31543,-1.53695 0,-0.80403 -0.31543,-1.53694 -0.31542,-0.73291 -0.84423,-1.26172 -0.52881,-0.52881 -1.26173,-0.84424 -0.7329,-0.31543 -1.53694,-0.31543 z m 4.75,3.95833 q 0,1.29264 -0.63704,2.38428 -0.63705,1.09163 -1.72869,1.72868 -1.09163,0.63704 -2.38427,0.63704 -1.292634,0 -2.38427,-0.63704 -1.091634,-0.63705 -1.728678,-1.72868 -0.637044,-1.09164 -0.637044,-2.38428 0,-1.29264 0.637044,-2.38427 0.637044,-1.09164 1.728678,-1.72869 1.091636,-0.63704 2.38427,-0.63704 1.29264,0 2.38427,0.63704 1.09164,0.63705 1.72869,1.72869 0.63704,1.09163 0.63704,2.38427 z"
       id="path1-36"
       style="fill:#eaeaea;fill-opacity:1;stroke-width:0.00618489" /><circle
       style="fill:#eaeaea;stroke-width:0.196601"
       id="path1"
       cx="100.35658"
       cy="115.35109"
       r="2.9612226" /></g></svg>
