<?xml version="1.0" encoding="UTF-8" standalone="no"?>
<!-- Created with Inkscape (http://www.inkscape.org/) -->

<svg
   width="9.5mm"
   height="9.5mm"
   viewBox="0 0 9.5 9.5"
   version="1.1"
   id="svg1"
   xml:space="preserve"
   inkscape:version="1.3.2 (091e20e, 2023-11-25, custom)"
   sodipodi:docname="SQ-css.svg"
   xmlns:inkscape="http://www.inkscape.org/namespaces/inkscape"
   xmlns:sodipodi="http://sodipodi.sourceforge.net/DTD/sodipodi-0.dtd"
   xmlns="http://www.w3.org/2000/svg"
   xmlns:svg="http://www.w3.org/2000/svg"><sodipodi:namedview
     id="namedview1"
     pagecolor="#ffffff"
     bordercolor="#000000"
     borderopacity="0.25"
     inkscape:showpageshadow="2"
     inkscape:pageopacity="0.0"
     inkscape:pagecheckerboard="0"
     inkscape:deskcolor="#d1d1d1"
     inkscape:document-units="mm"
     inkscape:zoom="11.716498"
     inkscape:cx="11.180815"
     inkscape:cy="19.545089"
     inkscape:window-width="1920"
     inkscape:window-height="1018"
     inkscape:window-x="-6"
     inkscape:window-y="-6"
     inkscape:window-maximized="1"
     inkscape:current-layer="layer1" /><defs
     id="defs1"><inkscape:path-effect
       effect="fillet_chamfer"
       id="path-effect2"
       is_visible="true"
       lpeversion="1"
       nodesatellites_param="F,0,0,1,0,1.5875,0,1 @ F,0,0,1,0,1.5875,0,1 @ F,0,0,1,0,1.5875,0,1 @ F,0,0,1,0,1.5875,0,1"
       radius="6"
       unit="px"
       method="auto"
       mode="F"
       chamfer_steps="1"
       flexible="false"
       use_knot_distance="true"
       apply_no_radius="true"
       apply_with_radius="true"
       only_selected="false"
       hide_knots="false" /><inkscape:path-effect
       effect="fillet_chamfer"
       id="path-effect1"
       is_visible="true"
       lpeversion="1"
       nodesatellites_param="F,0,0,1,0,1.3229167,0,1 @ F,0,0,1,0,1.3229167,0,1 @ F,0,0,1,0,1.3229167,0,1 @ F,0,0,1,0,1.3229167,0,1"
       radius="5"
       unit="px"
       method="auto"
       mode="F"
       chamfer_steps="1"
       flexible="false"
       use_knot_distance="true"
       apply_no_radius="true"
       apply_with_radius="true"
       only_selected="false"
       hide_knots="false" /><inkscape:path-effect
       effect="fillet_chamfer"
       id="path-effect4"
       is_visible="true"
       lpeversion="1"
       nodesatellites_param="F,0,0,1,0,6,0,1 @ F,0,0,1,0,6,0,1 @ F,0,0,1,0,6,0,1 @ F,0,0,1,0,6,0,1"
       radius="6"
       unit="mm"
       method="auto"
       mode="F"
       chamfer_steps="1"
       flexible="false"
       use_knot_distance="true"
       apply_no_radius="true"
       apply_with_radius="true"
       only_selected="false"
       hide_knots="false" /></defs><g
     inkscape:label="Layer 1"
     inkscape:groupmode="layer"
     id="layer1"
     transform="translate(-96.737773,-110.82903)"><path
       style="fill:#2965f1;fill-opacity:1;stroke:none;stroke-width:0.0759096"
       id="rect1"
       width="9.4240913"
       height="9.4240904"
       x="96.737778"
       y="110.82903"
       sodipodi:type="rect"
       transform="matrix(1.0080547,0,0,1.0080548,-0.77919822,-0.892711)"
       inkscape:path-effect="#path-effect2"
       d="m 98.325278,110.82903 h 6.249092 a 1.5875,1.5875 45 0 1 1.5875,1.5875 l 0,6.24909 a 1.5875,1.5875 135 0 1 -1.5875,1.5875 h -6.249092 a 1.5875,1.5875 45 0 1 -1.5875,-1.5875 l 0,-6.24909 a 1.5875,1.5875 135 0 1 1.5875,-1.5875 z" /><g
       id="g1"
       transform="matrix(0.01675729,0,0,0.0160067,97.197907,111.48131)"
       style="fill:#ffffff;fill-opacity:1"><path
         d="M 354.676,366.898 256.068,395.023 157.61,366.775 150.864,289 h 48.253 l 3.433,39.563 53.586,15.163 0.132,0.273 h 0.034 L 309.769,329.147 315.381,265 H 203 l -4,-50 h 120.646 l 4.396,-51 H 140 l -4,-49 h 240.58 z"
         id="path1"
         style="fill:#ffffff;fill-opacity:1" /><path
         d="M 64,32 98.936,435.301 255.769,480 413.014,435.295 448,32 Z M 383.041,410.51 255.779,446.697 128.912,410.528 98.896,64 H 413.1 Z"
         id="path2"
         style="fill:#ffffff;fill-opacity:1" /></g></g></svg>
