<?xml version="1.0" encoding="UTF-8" standalone="no"?>
<!-- Created with Inkscape (http://www.inkscape.org/) -->

<svg
   width="11mm"
   height="11mm"
   viewBox="0 0 11 11"
   version="1.1"
   id="svg1"
   xml:space="preserve"
   inkscape:version="1.3.2 (091e20e, 2023-11-25, custom)"
   sodipodi:docname="SQ-C++.svg"
   xmlns:inkscape="http://www.inkscape.org/namespaces/inkscape"
   xmlns:sodipodi="http://sodipodi.sourceforge.net/DTD/sodipodi-0.dtd"
   xmlns="http://www.w3.org/2000/svg"
   xmlns:svg="http://www.w3.org/2000/svg"><sodipodi:namedview
     id="namedview1"
     pagecolor="#ffffff"
     bordercolor="#000000"
     borderopacity="0.25"
     inkscape:showpageshadow="2"
     inkscape:pageopacity="0.0"
     inkscape:pagecheckerboard="0"
     inkscape:deskcolor="#d1d1d1"
     inkscape:document-units="mm"
     inkscape:zoom="11.716498"
     inkscape:cx="18.904966"
     inkscape:cy="13.570608"
     inkscape:window-width="1920"
     inkscape:window-height="1018"
     inkscape:window-x="-6"
     inkscape:window-y="-6"
     inkscape:window-maximized="1"
     inkscape:current-layer="layer1" /><defs
     id="defs1"><inkscape:path-effect
       effect="fillet_chamfer"
       id="path-effect2"
       is_visible="true"
       lpeversion="1"
       nodesatellites_param="F,0,0,1,0,1.5875,0,1 @ F,0,0,1,0,1.5875,0,1 @ F,0,0,1,0,1.5875,0,1 @ F,0,0,1,0,1.5875,0,1"
       radius="6"
       unit="px"
       method="auto"
       mode="F"
       chamfer_steps="1"
       flexible="false"
       use_knot_distance="true"
       apply_no_radius="true"
       apply_with_radius="true"
       only_selected="false"
       hide_knots="false" /><inkscape:path-effect
       effect="fillet_chamfer"
       id="path-effect1"
       is_visible="true"
       lpeversion="1"
       nodesatellites_param="F,0,0,1,0,1.3229167,0,1 @ F,0,0,1,0,1.3229167,0,1 @ F,0,0,1,0,1.3229167,0,1 @ F,0,0,1,0,1.3229167,0,1"
       radius="5"
       unit="px"
       method="auto"
       mode="F"
       chamfer_steps="1"
       flexible="false"
       use_knot_distance="true"
       apply_no_radius="true"
       apply_with_radius="true"
       only_selected="false"
       hide_knots="false" /><inkscape:path-effect
       effect="fillet_chamfer"
       id="path-effect4"
       is_visible="true"
       lpeversion="1"
       nodesatellites_param="F,0,0,1,0,6,0,1 @ F,0,0,1,0,6,0,1 @ F,0,0,1,0,6,0,1 @ F,0,0,1,0,6,0,1"
       radius="6"
       unit="mm"
       method="auto"
       mode="F"
       chamfer_steps="1"
       flexible="false"
       use_knot_distance="true"
       apply_no_radius="true"
       apply_with_radius="true"
       only_selected="false"
       hide_knots="false" /><inkscape:path-effect
       effect="fillet_chamfer"
       id="path-effect2-8"
       is_visible="true"
       lpeversion="1"
       nodesatellites_param="F,0,0,1,0,1.5875,0,1 @ F,0,0,1,0,1.5875,0,1 @ F,0,0,1,0,1.5875,0,1 @ F,0,0,1,0,1.5875,0,1"
       radius="6"
       unit="px"
       method="auto"
       mode="F"
       chamfer_steps="1"
       flexible="false"
       use_knot_distance="true"
       apply_no_radius="true"
       apply_with_radius="true"
       only_selected="false"
       hide_knots="false" /></defs><g
     inkscape:label="Layer 1"
     inkscape:groupmode="layer"
     id="layer1"
     transform="translate(-100.97111,-108.18319)"><path
       style="fill:#ff5733;fill-opacity:0.01;stroke:none;stroke-width:0.0759096"
       id="rect1-7"
       width="9.4240913"
       height="9.4240904"
       x="96.737778"
       y="110.82903"
       sodipodi:type="rect"
       transform="matrix(1.1672213,0,0,1.1672214,-11.943287,-21.178825)"
       inkscape:path-effect="#path-effect2-8"
       d="m 98.325278,110.82903 h 6.249092 a 1.5875,1.5875 45 0 1 1.5875,1.5875 l 0,6.24909 a 1.5875,1.5875 135 0 1 -1.5875,1.5875 h -6.249092 a 1.5875,1.5875 45 0 1 -1.5875,-1.5875 l 0,-6.24909 a 1.5875,1.5875 135 0 1 1.5875,-1.5875 z" /><path
       style="fill:#044f88;fill-opacity:1;stroke:none;stroke-width:0.0759096"
       id="rect1"
       width="9.4240913"
       height="9.4240904"
       x="96.737778"
       y="110.82903"
       sodipodi:type="rect"
       transform="matrix(1.0080547,0,0,1.0080548,4.2041365,-2.7885444)"
       inkscape:path-effect="#path-effect2"
       d="m 98.325278,110.82903 h 6.249092 a 1.5875,1.5875 45 0 1 1.5875,1.5875 l 0,6.24909 a 1.5875,1.5875 135 0 1 -1.5875,1.5875 h -6.249092 a 1.5875,1.5875 45 0 1 -1.5875,-1.5875 l 0,-6.24909 a 1.5875,1.5875 135 0 1 1.5875,-1.5875 z" /><path
       style="fill:#ffffff;fill-opacity:1"
       d="m 106.31503,117.75065 c -0.0962,-0.0243 -0.11449,-0.0345 -1.691,-0.94379 -1.62037,-0.9346 -1.61755,-0.93276 -1.7052,-1.11459 -0.0231,-0.048 -0.05,-0.12524 -0.0598,-0.17174 -0.0125,-0.0593 -0.0178,-0.61484 -0.0178,-1.86112 0,-1.73463 7.6e-4,-1.77901 0.0321,-1.88042 0.0302,-0.0976 0.12923,-0.25402 0.20106,-0.3174 0.0517,-0.0456 3.09047,-1.79301 3.17438,-1.82537 0.10847,-0.0418 0.33582,-0.042 0.44392,-2.9e-4 0.0429,0.0165 0.76088,0.42405 1.59554,0.90558 1.61069,0.92923 1.62896,0.94103 1.72185,1.11169 0.0939,0.17259 0.0909,0.10415 0.0909,2.03723 0,1.93139 0.003,1.87362 -0.0899,2.03145 -0.0946,0.16145 -0.13326,0.18619 -1.72102,1.10124 -0.83367,0.48046 -1.54807,0.88659 -1.58756,0.90252 -0.0833,0.0336 -0.2983,0.0475 -0.38737,0.025 z m 0.6267,-1.69357 c 0.63859,-0.12146 1.17113,-0.47699 1.53717,-1.02623 0.0409,-0.0613 0.0743,-0.11987 0.0743,-0.13009 0,-0.0102 -0.21002,-0.13913 -0.4667,-0.28647 -0.25668,-0.14734 -0.48898,-0.28094 -0.51621,-0.2969 l -0.0495,-0.029 -0.0832,0.11191 c -0.15837,0.21299 -0.36205,0.36189 -0.60306,0.44089 -0.1255,0.0411 -0.16172,0.0459 -0.34752,0.0457 -0.16794,-2e-4 -0.23172,-0.007 -0.33506,-0.0368 -0.30354,-0.0869 -0.57774,-0.30257 -0.73007,-0.5741 -0.18815,-0.33539 -0.20473,-0.74366 -0.0445,-1.09697 0.28393,-0.62618 1.0384,-0.88865 1.64417,-0.57199 0.18081,0.0945 0.30656,0.20845 0.47068,0.42646 l 0.0319,0.0424 0.45473,-0.26425 c 0.2501,-0.14534 0.48496,-0.28182 0.52191,-0.30329 l 0.0672,-0.0391 -0.0911,-0.12975 c -0.48631,-0.69249 -1.17892,-1.06723 -1.97385,-1.06795 -0.26105,-2.3e-4 -0.39831,0.0159 -0.63024,0.0743 -0.79582,0.20024 -1.44982,0.79466 -1.69923,1.54441 -0.0956,0.28736 -0.11177,0.39692 -0.11114,0.75231 6.4e-4,0.35904 0.0187,0.48511 0.11332,0.7898 0.22215,0.71559 0.76544,1.27239 1.49161,1.5287 0.16259,0.0574 0.40573,0.11205 0.58039,0.13048 0.17913,0.0189 0.49626,0.003 0.69406,-0.0345 z m 1.67532,-2.10339 v -0.12764 h 0.13562 0.13562 v -0.1436 -0.1436 h -0.13562 -0.13562 v -0.12764 -0.12764 h -0.13562 -0.13562 v 0.12764 0.12764 h -0.12765 -0.12764 v 0.1436 0.1436 h 0.12764 0.12765 v 0.12764 0.12765 h 0.13562 0.13562 z m 1.02114,0 v -0.12764 h 0.12765 0.12764 v -0.1436 -0.1436 h -0.12764 -0.12765 v -0.12764 -0.12764 h -0.13562 -0.13562 v 0.12764 0.12764 h -0.13562 -0.13562 v 0.1436 0.1436 h 0.13562 0.13562 v 0.12764 0.12765 h 0.13562 0.13562 z"
       id="path2" /></g></svg>
