<?xml version="1.0" encoding="UTF-8" standalone="no"?>
<!-- Created with Inkscape (http://www.inkscape.org/) -->

<svg
   width="11mm"
   height="11mm"
   viewBox="0 0 11 11"
   version="1.1"
   id="svg1"
   xml:space="preserve"
   inkscape:version="1.3.2 (091e20e, 2023-11-25, custom)"
   sodipodi:docname="SQ-git.svg"
   xmlns:inkscape="http://www.inkscape.org/namespaces/inkscape"
   xmlns:sodipodi="http://sodipodi.sourceforge.net/DTD/sodipodi-0.dtd"
   xmlns="http://www.w3.org/2000/svg"
   xmlns:svg="http://www.w3.org/2000/svg"><sodipodi:namedview
     id="namedview1"
     pagecolor="#ffffff"
     bordercolor="#000000"
     borderopacity="0.25"
     inkscape:showpageshadow="2"
     inkscape:pageopacity="0.0"
     inkscape:pagecheckerboard="0"
     inkscape:deskcolor="#d1d1d1"
     inkscape:document-units="mm"
     inkscape:zoom="8.2848152"
     inkscape:cx="-2.4140551"
     inkscape:cy="17.381196"
     inkscape:window-width="1920"
     inkscape:window-height="1018"
     inkscape:window-x="-6"
     inkscape:window-y="-6"
     inkscape:window-maximized="1"
     inkscape:current-layer="layer1" /><defs
     id="defs1"><inkscape:path-effect
       effect="fillet_chamfer"
       id="path-effect2"
       is_visible="true"
       lpeversion="1"
       nodesatellites_param="F,0,0,1,0,1.5875,0,1 @ F,0,0,1,0,1.5875,0,1 @ F,0,0,1,0,1.5875,0,1 @ F,0,0,1,0,1.5875,0,1"
       radius="6"
       unit="px"
       method="auto"
       mode="F"
       chamfer_steps="1"
       flexible="false"
       use_knot_distance="true"
       apply_no_radius="true"
       apply_with_radius="true"
       only_selected="false"
       hide_knots="false" /><inkscape:path-effect
       effect="fillet_chamfer"
       id="path-effect1"
       is_visible="true"
       lpeversion="1"
       nodesatellites_param="F,0,0,1,0,1.3229167,0,1 @ F,0,0,1,0,1.3229167,0,1 @ F,0,0,1,0,1.3229167,0,1 @ F,0,0,1,0,1.3229167,0,1"
       radius="5"
       unit="px"
       method="auto"
       mode="F"
       chamfer_steps="1"
       flexible="false"
       use_knot_distance="true"
       apply_no_radius="true"
       apply_with_radius="true"
       only_selected="false"
       hide_knots="false" /><inkscape:path-effect
       effect="fillet_chamfer"
       id="path-effect4"
       is_visible="true"
       lpeversion="1"
       nodesatellites_param="F,0,0,1,0,6,0,1 @ F,0,0,1,0,6,0,1 @ F,0,0,1,0,6,0,1 @ F,0,0,1,0,6,0,1"
       radius="6"
       unit="mm"
       method="auto"
       mode="F"
       chamfer_steps="1"
       flexible="false"
       use_knot_distance="true"
       apply_no_radius="true"
       apply_with_radius="true"
       only_selected="false"
       hide_knots="false" /><inkscape:path-effect
       effect="fillet_chamfer"
       id="path-effect2-0"
       is_visible="true"
       lpeversion="1"
       nodesatellites_param="F,0,0,1,0,1.5875,0,1 @ F,0,0,1,0,1.5875,0,1 @ F,0,0,1,0,1.5875,0,1 @ F,0,0,1,0,1.5875,0,1"
       radius="6"
       unit="px"
       method="auto"
       mode="F"
       chamfer_steps="1"
       flexible="false"
       use_knot_distance="true"
       apply_no_radius="true"
       apply_with_radius="true"
       only_selected="false"
       hide_knots="false" /></defs><g
     inkscape:label="Layer 1"
     inkscape:groupmode="layer"
     id="layer1"
     transform="translate(-104.91298,-114.50146)"><path
       style="fill:#9a8682;fill-opacity:0;stroke:none;stroke-width:0.0759096"
       id="rect1-5"
       width="9.4240913"
       height="9.4240904"
       x="96.737778"
       y="110.82903"
       sodipodi:type="rect"
       transform="matrix(1.1672213,0,0,1.1672214,-8.0014182,-14.860556)"
       inkscape:path-effect="#path-effect2-0"
       d="m 98.325278,110.82903 h 6.249092 a 1.5875,1.5875 45 0 1 1.5875,1.5875 l 0,6.24909 a 1.5875,1.5875 135 0 1 -1.5875,1.5875 h -6.249092 a 1.5875,1.5875 45 0 1 -1.5875,-1.5875 l 0,-6.24909 a 1.5875,1.5875 135 0 1 1.5875,-1.5875 z" /><path
       style="fill:#f34f29;fill-opacity:1;stroke:none;stroke-width:0.0759096"
       id="rect1"
       width="9.4240913"
       height="9.4240904"
       x="96.737778"
       y="110.82903"
       sodipodi:type="rect"
       transform="matrix(1.0080547,0,0,1.0080548,8.1460053,3.5297246)"
       inkscape:path-effect="#path-effect2"
       d="m 98.325278,110.82903 h 6.249092 a 1.5875,1.5875 45 0 1 1.5875,1.5875 l 0,6.24909 a 1.5875,1.5875 135 0 1 -1.5875,1.5875 h -6.249092 a 1.5875,1.5875 45 0 1 -1.5875,-1.5875 l 0,-6.24909 a 1.5875,1.5875 135 0 1 1.5875,-1.5875 z" /><path
       d="m 114.10351,119.50868 -3.19772,-3.19772 c -0.13561,-0.13628 -0.31421,-0.2044 -0.49283,-0.2044 -0.1786,0 -0.35721,0.0681 -0.49282,0.2044 l -0.63241,0.6324 0.78257,0.78256 c 0.25998,-0.15282 0.59867,-0.11973 0.8216,0.10318 0.22292,0.22293 0.25533,0.56162 0.10254,0.82092 l 0.76933,0.76934 c 0.25997,-0.1528 0.59867,-0.11973 0.82159,0.10318 0.26461,0.2646 0.26461,0.69325 0,0.95786 -0.2646,0.2646 -0.69326,0.2646 -0.95787,0 -0.22292,-0.22293 -0.25599,-0.56162 -0.10318,-0.82159 l -0.76933,-0.76934 c -0.0549,0.0324 -0.11245,0.0562 -0.17265,0.0714 v 2.08043 c 0.29172,0.0754 0.50804,0.33803 0.50804,0.65358 0,0.3744 -0.30297,0.67738 -0.67739,0.67738 -0.37441,0 -0.67738,-0.30298 -0.67738,-0.67738 0,-0.31555 0.21632,-0.57817 0.50803,-0.65358 v -2.08043 c -0.11311,-0.0291 -0.22094,-0.0853 -0.30958,-0.17398 -0.22293,-0.22292 -0.25534,-0.56162 -0.10254,-0.82093 l -0.78321,-0.78322 -2.32587,2.32585 c -0.27254,0.27189 -0.27254,0.71377 0,0.98565 l 3.19773,3.19773 c 0.13561,0.13626 0.31421,0.2044 0.49282,0.2044 0.17861,0 0.35721,-0.0682 0.49283,-0.2044 l 3.19771,-3.19773 c 0.27254,-0.27188 0.27254,-0.71376 0,-0.98565 z"
       id="path1"
       style="fill:#000000;fill-opacity:1;stroke-width:0.169345" /></g></svg>
