<?xml version="1.0" encoding="UTF-8" standalone="no"?>
<!-- Created with Inkscape (http://www.inkscape.org/) -->

<svg
   width="11mm"
   height="11mm"
   viewBox="0 0 11 11"
   version="1.1"
   id="svg1"
   xml:space="preserve"
   inkscape:version="1.3.2 (091e20e, 2023-11-25, custom)"
   sodipodi:docname="SQ-Java.svg"
   xmlns:inkscape="http://www.inkscape.org/namespaces/inkscape"
   xmlns:sodipodi="http://sodipodi.sourceforge.net/DTD/sodipodi-0.dtd"
   xmlns="http://www.w3.org/2000/svg"
   xmlns:svg="http://www.w3.org/2000/svg"><sodipodi:namedview
     id="namedview1"
     pagecolor="#ffffff"
     bordercolor="#000000"
     borderopacity="0.25"
     inkscape:showpageshadow="2"
     inkscape:pageopacity="0.0"
     inkscape:pagecheckerboard="0"
     inkscape:deskcolor="#d1d1d1"
     inkscape:document-units="mm"
     inkscape:zoom="11.716498"
     inkscape:cx="18.264843"
     inkscape:cy="28.080063"
     inkscape:window-width="1920"
     inkscape:window-height="1018"
     inkscape:window-x="-6"
     inkscape:window-y="-6"
     inkscape:window-maximized="1"
     inkscape:current-layer="layer1" /><defs
     id="defs1"><inkscape:path-effect
       effect="fillet_chamfer"
       id="path-effect2"
       is_visible="true"
       lpeversion="1"
       nodesatellites_param="F,0,0,1,0,1.5875,0,1 @ F,0,0,1,0,1.5875,0,1 @ F,0,0,1,0,1.5875,0,1 @ F,0,0,1,0,1.5875,0,1"
       radius="6"
       unit="px"
       method="auto"
       mode="F"
       chamfer_steps="1"
       flexible="false"
       use_knot_distance="true"
       apply_no_radius="true"
       apply_with_radius="true"
       only_selected="false"
       hide_knots="false" /><inkscape:path-effect
       effect="fillet_chamfer"
       id="path-effect1"
       is_visible="true"
       lpeversion="1"
       nodesatellites_param="F,0,0,1,0,1.3229167,0,1 @ F,0,0,1,0,1.3229167,0,1 @ F,0,0,1,0,1.3229167,0,1 @ F,0,0,1,0,1.3229167,0,1"
       radius="5"
       unit="px"
       method="auto"
       mode="F"
       chamfer_steps="1"
       flexible="false"
       use_knot_distance="true"
       apply_no_radius="true"
       apply_with_radius="true"
       only_selected="false"
       hide_knots="false" /><inkscape:path-effect
       effect="fillet_chamfer"
       id="path-effect4"
       is_visible="true"
       lpeversion="1"
       nodesatellites_param="F,0,0,1,0,6,0,1 @ F,0,0,1,0,6,0,1 @ F,0,0,1,0,6,0,1 @ F,0,0,1,0,6,0,1"
       radius="6"
       unit="mm"
       method="auto"
       mode="F"
       chamfer_steps="1"
       flexible="false"
       use_knot_distance="true"
       apply_no_radius="true"
       apply_with_radius="true"
       only_selected="false"
       hide_knots="false" /><inkscape:path-effect
       effect="fillet_chamfer"
       id="path-effect2-8"
       is_visible="true"
       lpeversion="1"
       nodesatellites_param="F,0,0,1,0,1.5875,0,1 @ F,0,0,1,0,1.5875,0,1 @ F,0,0,1,0,1.5875,0,1 @ F,0,0,1,0,1.5875,0,1"
       radius="6"
       unit="px"
       method="auto"
       mode="F"
       chamfer_steps="1"
       flexible="false"
       use_knot_distance="true"
       apply_no_radius="true"
       apply_with_radius="true"
       only_selected="false"
       hide_knots="false" /></defs><g
     inkscape:label="Layer 1"
     inkscape:groupmode="layer"
     id="layer1"
     transform="translate(-100.97111,-108.18319)"><path
       style="fill:#ff5733;fill-opacity:0.01;stroke:none;stroke-width:0.0759096"
       id="rect1-7"
       width="9.4240913"
       height="9.4240904"
       x="96.737778"
       y="110.82903"
       sodipodi:type="rect"
       transform="matrix(1.1672213,0,0,1.1672214,-11.943287,-21.178825)"
       inkscape:path-effect="#path-effect2-8"
       d="m 98.325278,110.82903 h 6.249092 a 1.5875,1.5875 45 0 1 1.5875,1.5875 l 0,6.24909 a 1.5875,1.5875 135 0 1 -1.5875,1.5875 h -6.249092 a 1.5875,1.5875 45 0 1 -1.5875,-1.5875 l 0,-6.24909 a 1.5875,1.5875 135 0 1 1.5875,-1.5875 z" /><path
       style="fill:#fff3c4;fill-opacity:1;stroke:none;stroke-width:0.0759096"
       id="rect1"
       width="9.4240913"
       height="9.4240904"
       x="96.737778"
       y="110.82903"
       sodipodi:type="rect"
       transform="matrix(1.0080547,0,0,1.0080548,4.2041365,-2.7885444)"
       inkscape:path-effect="#path-effect2"
       d="m 98.325278,110.82903 h 6.249092 a 1.5875,1.5875 45 0 1 1.5875,1.5875 l 0,6.24909 a 1.5875,1.5875 135 0 1 -1.5875,1.5875 h -6.249092 a 1.5875,1.5875 45 0 1 -1.5875,-1.5875 l 0,-6.24909 a 1.5875,1.5875 135 0 1 1.5875,-1.5875 z" /><g
       id="g1"
       transform="matrix(0.26873577,0,0,0.26873577,102.2272,109.3832)"><path
         d="m 11.622,24.74 c 0,0 -1.23,0.748 0.855,0.962 2.51,0.32 3.847,0.267 6.625,-0.267 a 10.02,10.02 0 0 0 1.763,0.855 c -6.25,2.672 -14.16,-0.16 -9.244,-1.55 z m -0.8,-3.473 c 0,0 -1.336,1.015 0.748,1.23 2.725,0.267 4.862,0.32 8.55,-0.427 a 3.26,3.26 0 0 0 1.282,0.801 c -7.534,2.244 -15.976,0.214 -10.58,-1.603 z m 14.747,6.09 c 0,0 0.908,0.748 -1.015,1.336 -3.58,1.07 -15.014,1.39 -18.22,0 -1.122,-0.48 1.015,-1.175 1.7,-1.282 0.695,-0.16 1.07,-0.16 1.07,-0.16 -1.23,-0.855 -8.175,1.763 -3.526,2.51 12.77,2.084 23.296,-0.908 19.983,-2.404 z M 12.2,17.633 c 0,0 -5.824,1.39 -2.084,1.87 1.603,0.214 4.755,0.16 7.694,-0.053 2.404,-0.214 4.81,-0.64 4.81,-0.64 0,0 -0.855,0.374 -1.443,0.748 -5.93,1.55 -17.312,0.855 -14.052,-0.748 2.778,-1.336 5.076,-1.175 5.076,-1.175 z m 10.42,5.824 c 5.984,-3.1 3.206,-6.09 1.282,-5.717 -0.48,0.107 -0.695,0.214 -0.695,0.214 0,0 0.16,-0.32 0.534,-0.427 3.794,-1.336 6.786,4.007 -1.23,6.09 0,0 0.053,-0.053 0.107,-0.16 z m -9.83,8.442 c 5.77,0.374 14.587,-0.214 14.8,-2.94 0,0 -0.427,1.07 -4.755,1.87 -4.916,0.908 -11.007,0.8 -14.587,0.214 0,0 0.748,0.64 4.542,0.855 z"
         fill="#4e7896"
         id="path1-1" /><path
         d="m 18.996,0.001 c 0,0 3.313,3.366 -3.152,8.442 -5.183,4.114 -1.175,6.465 0,9.137 -3.046,-2.725 -5.236,-5.13 -3.74,-7.373 2.19,-3.314 8.228,-4.907 6.892,-10.206 z m -1.7,15.335 c 1.55,1.763 -0.427,3.366 -0.427,3.366 0,0 3.954,-2.03 2.137,-4.542 -1.656,-2.404 -2.94,-3.58 4.007,-7.587 0,0 -10.953,2.725 -5.717,8.763 z"
         fill="#f58219"
         id="path2" /></g></g></svg>
