<?xml version="1.0" encoding="UTF-8" standalone="no"?>
<!-- Created with Inkscape (http://www.inkscape.org/) -->

<svg
   width="11mm"
   height="11mm"
   viewBox="0 0 11 11"
   version="1.1"
   id="svg1"
   xml:space="preserve"
   inkscape:version="1.3.2 (091e20e, 2023-11-25, custom)"
   sodipodi:docname="SQ-json.svg"
   xmlns:inkscape="http://www.inkscape.org/namespaces/inkscape"
   xmlns:sodipodi="http://sodipodi.sourceforge.net/DTD/sodipodi-0.dtd"
   xmlns="http://www.w3.org/2000/svg"
   xmlns:svg="http://www.w3.org/2000/svg"><sodipodi:namedview
     id="namedview1"
     pagecolor="#ffffff"
     bordercolor="#000000"
     borderopacity="0.25"
     inkscape:showpageshadow="2"
     inkscape:pageopacity="0.0"
     inkscape:pagecheckerboard="0"
     inkscape:deskcolor="#d1d1d1"
     inkscape:document-units="mm"
     inkscape:zoom="11.716498"
     inkscape:cx="19.20369"
     inkscape:cy="30.128456"
     inkscape:window-width="1920"
     inkscape:window-height="1018"
     inkscape:window-x="-6"
     inkscape:window-y="-6"
     inkscape:window-maximized="1"
     inkscape:current-layer="layer1" /><defs
     id="defs1"><inkscape:path-effect
       effect="fillet_chamfer"
       id="path-effect2"
       is_visible="true"
       lpeversion="1"
       nodesatellites_param="F,0,0,1,0,1.5875,0,1 @ F,0,0,1,0,1.5875,0,1 @ F,0,0,1,0,1.5875,0,1 @ F,0,0,1,0,1.5875,0,1"
       radius="6"
       unit="px"
       method="auto"
       mode="F"
       chamfer_steps="1"
       flexible="false"
       use_knot_distance="true"
       apply_no_radius="true"
       apply_with_radius="true"
       only_selected="false"
       hide_knots="false" /><inkscape:path-effect
       effect="fillet_chamfer"
       id="path-effect1"
       is_visible="true"
       lpeversion="1"
       nodesatellites_param="F,0,0,1,0,1.3229167,0,1 @ F,0,0,1,0,1.3229167,0,1 @ F,0,0,1,0,1.3229167,0,1 @ F,0,0,1,0,1.3229167,0,1"
       radius="5"
       unit="px"
       method="auto"
       mode="F"
       chamfer_steps="1"
       flexible="false"
       use_knot_distance="true"
       apply_no_radius="true"
       apply_with_radius="true"
       only_selected="false"
       hide_knots="false" /><inkscape:path-effect
       effect="fillet_chamfer"
       id="path-effect4"
       is_visible="true"
       lpeversion="1"
       nodesatellites_param="F,0,0,1,0,6,0,1 @ F,0,0,1,0,6,0,1 @ F,0,0,1,0,6,0,1 @ F,0,0,1,0,6,0,1"
       radius="6"
       unit="mm"
       method="auto"
       mode="F"
       chamfer_steps="1"
       flexible="false"
       use_knot_distance="true"
       apply_no_radius="true"
       apply_with_radius="true"
       only_selected="false"
       hide_knots="false" /><inkscape:path-effect
       effect="fillet_chamfer"
       id="path-effect2-9"
       is_visible="true"
       lpeversion="1"
       nodesatellites_param="F,0,0,1,0,1.5875,0,1 @ F,0,0,1,0,1.5875,0,1 @ F,0,0,1,0,1.5875,0,1 @ F,0,0,1,0,1.5875,0,1"
       radius="6"
       unit="px"
       method="auto"
       mode="F"
       chamfer_steps="1"
       flexible="false"
       use_knot_distance="true"
       apply_no_radius="true"
       apply_with_radius="true"
       only_selected="false"
       hide_knots="false" /></defs><g
     inkscape:label="Layer 1"
     inkscape:groupmode="layer"
     id="layer1"
     transform="translate(-100.70652,-107.65403)"><path
       style="fill:#999999;fill-opacity:0.01;stroke:none;stroke-width:0.0759096"
       id="rect1-5"
       width="9.4240913"
       height="9.4240904"
       x="96.737778"
       y="110.82903"
       sodipodi:type="rect"
       transform="matrix(1.1672213,0,0,1.1672214,-12.20787,-21.707992)"
       inkscape:path-effect="#path-effect2-9"
       d="m 98.325278,110.82903 h 6.249092 a 1.5875,1.5875 45 0 1 1.5875,1.5875 l 0,6.24909 a 1.5875,1.5875 135 0 1 -1.5875,1.5875 h -6.249092 a 1.5875,1.5875 45 0 1 -1.5875,-1.5875 l 0,-6.24909 a 1.5875,1.5875 135 0 1 1.5875,-1.5875 z" /><path
       style="fill:#999999;fill-opacity:1;stroke:none;stroke-width:0.0759096"
       id="rect1"
       width="9.4240913"
       height="9.4240904"
       x="96.737778"
       y="110.82903"
       sodipodi:type="rect"
       transform="matrix(1.0080547,0,0,1.0080548,3.9395535,-3.3177114)"
       inkscape:path-effect="#path-effect2"
       d="m 98.325278,110.82903 h 6.249092 a 1.5875,1.5875 45 0 1 1.5875,1.5875 l 0,6.24909 a 1.5875,1.5875 135 0 1 -1.5875,1.5875 h -6.249092 a 1.5875,1.5875 45 0 1 -1.5875,-1.5875 l 0,-6.24909 a 1.5875,1.5875 135 0 1 1.5875,-1.5875 z" /><g
       id="g1"
       transform="matrix(0.3191559,0,0,0.3191559,102.37668,109.32422)"
       style="fill:#ffffff;fill-opacity:1"><path
         d="M 23.898,13.566 C 24.047,12.406 24.033,11.22 23.853,10.067 23.704,9.107 23.433,8.171 23.058,7.279 22.817,6.718 22.532,6.178 22.202,5.662 21.031,3.825 19.334,2.348 17.38,1.361 16.685,1.006 15.953,0.716 15.202,0.492 h -0.005 c 0.119,0.063 0.241,0.132 0.346,0.201 0.12,0.074 0.24,0.146 0.352,0.225 0.57,0.385 1.097,0.827 1.563,1.33 1.066,1.145 1.802,2.548 2.224,4.041 0.285,0.982 0.435,1.998 0.496,3.017 0.044,0.743 0.044,1.491 -0.047,2.229 -0.149,1.27 -0.555,2.51 -1.231,3.596 -0.496,0.803 -1.143,1.519 -1.908,2.084 -1.247,0.928 -2.884,1.482 -4.447,1.114 C 12.29,18.268 12.034,18.183 11.795,18.071 11.523,17.947 11.254,17.794 11.014,17.622 10.548,17.311 10.127,16.937 9.767,16.516 9.331,15.996 8.971,15.405 8.715,14.769 8.4,13.963 8.235,13.097 8.22,12.229 8.19,10.956 8.446,9.676 9.076,8.559 9.497,7.815 10.067,7.163 10.743,6.641 10.969,6.463 11.208,6.308 11.449,6.162 L 11.465,6.155 C 10.998,6.05 10.503,6.004 10.02,6.035 9.601,6.064 9.195,6.14 8.789,6.274 8.429,6.394 8.083,6.545 7.767,6.724 7.512,6.873 7.258,7.039 7.033,7.219 6.821,7.399 6.612,7.578 6.416,7.774 5.29,8.927 4.644,10.456 4.389,12.03 c -0.151,0.973 -0.151,1.961 -0.091,2.951 0.105,1.394 0.392,2.786 0.947,4.061 0.345,0.794 0.795,1.527 1.351,2.173 0.856,0.987 1.939,1.753 3.14,2.231 0.677,0.271 1.397,0.465 2.118,0.54 C 11.929,24 12.004,24 12.064,24 l -0.021,-0.032 c 0.48,-0.004 0.955,-0.029 1.429,-0.094 1.083,-0.138 2.148,-0.433 3.154,-0.863 1.413,-0.602 2.705,-1.471 3.803,-2.543 1.005,-0.989 1.847,-2.151 2.446,-3.427 0.511,-1.097 0.871,-2.274 1.023,-3.475 z"
         id="path1-5"
         style="fill:#ffffff;fill-opacity:1" /><path
         d="m 0.104,13.576 c 0.12,1.02 0.375,2.023 0.78,2.977 0.228,0.57 0.512,1.124 0.827,1.648 1.097,1.783 2.69,3.236 4.521,4.24 0.69,0.391 1.412,0.69 2.162,0.945 0.227,0.074 0.451,0.149 0.691,0.209 L 9.101,23.571 C 8.937,23.501 8.786,23.422 8.65,23.343 8.501,23.26 8.349,23.175 8.2,23.084 7.613,22.722 7.089,22.297 6.607,21.809 5.51,20.671 4.776,19.242 4.354,17.728 4.069,16.694 3.918,15.626 3.858,14.556 3.814,13.853 3.829,13.163 3.904,12.474 4.039,11.217 4.4,9.973 5.031,8.894 5.482,8.1 6.097,7.396 6.819,6.841 c 0.495,-0.374 1.052,-0.69 1.637,-0.9 0.826,-0.299 1.712,-0.389 2.569,-0.27 0.331,0.045 0.66,0.121 0.961,0.225 0.029,0 0.029,0 0.045,0.03 0.015,0.015 0.045,0.015 0.06,0.03 0.045,0.016 0.104,0.045 0.165,0.074 0.24,0.12 0.48,0.271 0.706,0.42 0.901,0.629 1.637,1.498 2.102,2.502 0.421,0.914 0.617,1.934 0.633,2.938 0.014,1.079 -0.181,2.157 -0.647,3.146 -0.556,1.184 -1.502,2.188 -2.645,2.832 0.09,0.03 0.181,0.045 0.272,0.075 0.226,0.044 0.45,0.074 0.69,0.074 1.472,0.045 2.899,-0.659 3.95,-1.647 0.195,-0.18 0.376,-0.375 0.541,-0.585 0.225,-0.27 0.436,-0.539 0.615,-0.823 0.24,-0.375 0.436,-0.75 0.616,-1.154 0.227,-0.539 0.405,-1.094 0.51,-1.664 0.196,-1.004 0.212,-2.022 0.149,-3.026 C 19.613,7.096 19.073,5.073 17.901,3.394 17.72,3.14 17.541,2.9 17.345,2.675 17.015,2.3 16.654,1.956 16.279,1.641 15.858,1.296 15.392,0.982 14.913,0.726 14.419,0.503 13.832,0.279 13.217,0.128 L 12.916,0.068 C 12.706,0.038 12.495,0.024 12.28,0.008 11.954,-0.007 11.609,-0.002 11.262,0.024 10.556,0.069 9.846,0.184 9.145,0.361 5.783,1.227 2.84,3.566 1.273,6.669 0.771,7.658 0.416,8.715 0.209,9.801 c -0.24,1.243 -0.271,2.523 -0.105,3.775 z"
         id="path2"
         style="fill:#ffffff;fill-opacity:1" /></g></g></svg>
