<?xml version="1.0" encoding="UTF-8" standalone="no"?>
<!-- Created with Inkscape (http://www.inkscape.org/) -->

<svg
   width="11mm"
   height="11mm"
   viewBox="0 0 11 11"
   version="1.1"
   id="svg1"
   xml:space="preserve"
   inkscape:version="1.3.2 (091e20e, 2023-11-25, custom)"
   sodipodi:docname="SQ-Python.svg"
   xmlns:inkscape="http://www.inkscape.org/namespaces/inkscape"
   xmlns:sodipodi="http://sodipodi.sourceforge.net/DTD/sodipodi-0.dtd"
   xmlns="http://www.w3.org/2000/svg"
   xmlns:svg="http://www.w3.org/2000/svg"><sodipodi:namedview
     id="namedview1"
     pagecolor="#ffffff"
     bordercolor="#000000"
     borderopacity="0.25"
     inkscape:showpageshadow="2"
     inkscape:pageopacity="0.0"
     inkscape:pagecheckerboard="0"
     inkscape:deskcolor="#d1d1d1"
     inkscape:document-units="mm"
     inkscape:zoom="8.2848152"
     inkscape:cx="32.469041"
     inkscape:cy="22.933523"
     inkscape:window-width="1920"
     inkscape:window-height="1018"
     inkscape:window-x="-6"
     inkscape:window-y="-6"
     inkscape:window-maximized="1"
     inkscape:current-layer="layer1" /><defs
     id="defs1"><inkscape:path-effect
       effect="fillet_chamfer"
       id="path-effect2"
       is_visible="true"
       lpeversion="1"
       nodesatellites_param="F,0,0,1,0,1.5875,0,1 @ F,0,0,1,0,1.5875,0,1 @ F,0,0,1,0,1.5875,0,1 @ F,0,0,1,0,1.5875,0,1"
       radius="6"
       unit="px"
       method="auto"
       mode="F"
       chamfer_steps="1"
       flexible="false"
       use_knot_distance="true"
       apply_no_radius="true"
       apply_with_radius="true"
       only_selected="false"
       hide_knots="false" /><inkscape:path-effect
       effect="fillet_chamfer"
       id="path-effect1"
       is_visible="true"
       lpeversion="1"
       nodesatellites_param="F,0,0,1,0,1.3229167,0,1 @ F,0,0,1,0,1.3229167,0,1 @ F,0,0,1,0,1.3229167,0,1 @ F,0,0,1,0,1.3229167,0,1"
       radius="5"
       unit="px"
       method="auto"
       mode="F"
       chamfer_steps="1"
       flexible="false"
       use_knot_distance="true"
       apply_no_radius="true"
       apply_with_radius="true"
       only_selected="false"
       hide_knots="false" /><inkscape:path-effect
       effect="fillet_chamfer"
       id="path-effect4"
       is_visible="true"
       lpeversion="1"
       nodesatellites_param="F,0,0,1,0,6,0,1 @ F,0,0,1,0,6,0,1 @ F,0,0,1,0,6,0,1 @ F,0,0,1,0,6,0,1"
       radius="6"
       unit="mm"
       method="auto"
       mode="F"
       chamfer_steps="1"
       flexible="false"
       use_knot_distance="true"
       apply_no_radius="true"
       apply_with_radius="true"
       only_selected="false"
       hide_knots="false" /><inkscape:path-effect
       effect="fillet_chamfer"
       id="path-effect2-8"
       is_visible="true"
       lpeversion="1"
       nodesatellites_param="F,0,0,1,0,1.5875,0,1 @ F,0,0,1,0,1.5875,0,1 @ F,0,0,1,0,1.5875,0,1 @ F,0,0,1,0,1.5875,0,1"
       radius="6"
       unit="px"
       method="auto"
       mode="F"
       chamfer_steps="1"
       flexible="false"
       use_knot_distance="true"
       apply_no_radius="true"
       apply_with_radius="true"
       only_selected="false"
       hide_knots="false" /><linearGradient
       id="A"
       x1="811.527"
       y1="574.895"
       x2="665.255"
       y2="573.732"
       gradientUnits="userSpaceOnUse"><stop
         offset="0"
         stop-color="#366a96"
         id="stop1" /><stop
         offset="1"
         stop-color="#3679b0"
         id="stop2" /></linearGradient><linearGradient
       id="B"
       x1="862.824"
       y1="642.176"
       x2="573.276"
       y2="642.176"
       gradientUnits="userSpaceOnUse"><stop
         offset="0"
         stop-color="#ffc836"
         id="stop3" /><stop
         offset="1"
         stop-color="#ffe873"
         id="stop4" /></linearGradient></defs><g
     inkscape:label="Layer 1"
     inkscape:groupmode="layer"
     id="layer1"
     transform="translate(-100.97111,-108.18319)"><path
       style="fill:#ff5733;fill-opacity:0.01;stroke:none;stroke-width:0.0759096"
       id="rect1-7"
       width="9.4240913"
       height="9.4240904"
       x="96.737778"
       y="110.82903"
       sodipodi:type="rect"
       transform="matrix(1.1672213,0,0,1.1672214,-11.943287,-21.178825)"
       inkscape:path-effect="#path-effect2-8"
       d="m 98.325278,110.82903 h 6.249092 a 1.5875,1.5875 45 0 1 1.5875,1.5875 l 0,6.24909 a 1.5875,1.5875 135 0 1 -1.5875,1.5875 h -6.249092 a 1.5875,1.5875 45 0 1 -1.5875,-1.5875 l 0,-6.24909 a 1.5875,1.5875 135 0 1 1.5875,-1.5875 z" /><path
       style="fill:#4d5972;fill-opacity:1;stroke:none;stroke-width:0.0759096"
       id="rect1"
       width="9.4240913"
       height="9.4240904"
       x="96.737778"
       y="110.82903"
       sodipodi:type="rect"
       transform="matrix(1.0080547,0,0,1.0080548,4.2041365,-2.7885444)"
       inkscape:path-effect="#path-effect2"
       d="m 98.325278,110.82903 h 6.249092 a 1.5875,1.5875 45 0 1 1.5875,1.5875 l 0,6.24909 a 1.5875,1.5875 135 0 1 -1.5875,1.5875 h -6.249092 a 1.5875,1.5875 45 0 1 -1.5875,-1.5875 l 0,-6.24909 a 1.5875,1.5875 135 0 1 1.5875,-1.5875 z" /><g
       transform="matrix(0.03982135,0,0,0.03893208,76.046028,89.664179)"
       id="g6"><path
         d="m 716.255,544.487 c 0,-13.623 3.653,-21.034 23.822,-24.563 13.693,-2.4 31.25,-2.7 47.627,0 12.935,2.135 23.822,11.77 23.822,24.563 v 44.945 c 0,13.182 -10.57,23.98 -23.822,23.98 h -47.627 c -16.164,0 -29.787,13.782 -29.787,29.363 v 21.564 h -16.376 c -13.852,0 -21.917,-9.988 -25.305,-23.964 -4.57,-18.776 -4.376,-29.963 0,-47.945 3.794,-15.687 15.917,-23.964 29.77,-23.964 h 65.52 v -6 h -47.645 v -17.98 z"
         fill="url(#A)"
         id="path4"
         style="fill:url(#A)" /><path
         d="m 811.527,688.32 c 0,13.623 -11.823,20.523 -23.822,23.964 -18.052,5.188 -32.54,4.394 -47.627,0 -12.6,-3.67 -23.822,-11.17 -23.822,-23.964 v -44.945 c 0,-12.935 10.782,-23.98 23.822,-23.98 h 47.627 c 15.864,0 29.787,-13.71 29.787,-29.963 v -20.964 h 17.858 c 13.87,0 20.4,10.305 23.822,23.964 4.764,18.97 4.976,33.157 0,47.945 -4.817,14.364 -9.97,23.964 -23.822,23.964 H 763.9 v 6 h 47.627 v 17.98 z"
         fill="url(#B)"
         id="path5"
         style="fill:url(#B)" /><path
         d="m 728.166,541.505 c 0,-4.976 3.988,-9 8.93,-9 4.923,0 8.93,4.023 8.93,9 0,4.96 -4.006,8.982 -8.93,8.982 -4.94,0 -8.93,-4.023 -8.93,-8.982 z m 53.59,149.798 c 0,-4.96 4.006,-8.982 8.93,-8.982 4.94,0 8.93,4.023 8.93,8.982 0,4.976 -3.988,9 -8.93,9 -4.923,0 -8.93,-4.023 -8.93,-9 z"
         fill="#ffffff"
         id="path6" /></g></g></svg>
