<?xml version="1.0" encoding="UTF-8" standalone="no"?>
<!-- Created with Inkscape (http://www.inkscape.org/) -->

<svg
   width="9.5mm"
   height="9.5mm"
   viewBox="0 0 9.5 9.5"
   version="1.1"
   id="svg1"
   xml:space="preserve"
   inkscape:version="1.3.2 (091e20e, 2023-11-25, custom)"
   sodipodi:docname="SQ-readme.svg"
   xmlns:inkscape="http://www.inkscape.org/namespaces/inkscape"
   xmlns:sodipodi="http://sodipodi.sourceforge.net/DTD/sodipodi-0.dtd"
   xmlns="http://www.w3.org/2000/svg"
   xmlns:svg="http://www.w3.org/2000/svg"><sodipodi:namedview
     id="namedview1"
     pagecolor="#ffffff"
     bordercolor="#000000"
     borderopacity="0.25"
     inkscape:showpageshadow="2"
     inkscape:pageopacity="0.0"
     inkscape:pagecheckerboard="0"
     inkscape:deskcolor="#d1d1d1"
     inkscape:document-units="mm"
     inkscape:zoom="11.716498"
     inkscape:cx="34.225244"
     inkscape:cy="18.094144"
     inkscape:window-width="1920"
     inkscape:window-height="1018"
     inkscape:window-x="-6"
     inkscape:window-y="-6"
     inkscape:window-maximized="1"
     inkscape:current-layer="layer1" /><defs
     id="defs1"><inkscape:path-effect
       effect="fillet_chamfer"
       id="path-effect2"
       is_visible="true"
       lpeversion="1"
       nodesatellites_param="F,0,0,1,0,1.5875,0,1 @ F,0,0,1,0,1.5875,0,1 @ F,0,0,1,0,1.5875,0,1 @ F,0,0,1,0,1.5875,0,1"
       radius="6"
       unit="px"
       method="auto"
       mode="F"
       chamfer_steps="1"
       flexible="false"
       use_knot_distance="true"
       apply_no_radius="true"
       apply_with_radius="true"
       only_selected="false"
       hide_knots="false" /><inkscape:path-effect
       effect="fillet_chamfer"
       id="path-effect1"
       is_visible="true"
       lpeversion="1"
       nodesatellites_param="F,0,0,1,0,1.3229167,0,1 @ F,0,0,1,0,1.3229167,0,1 @ F,0,0,1,0,1.3229167,0,1 @ F,0,0,1,0,1.3229167,0,1"
       radius="5"
       unit="px"
       method="auto"
       mode="F"
       chamfer_steps="1"
       flexible="false"
       use_knot_distance="true"
       apply_no_radius="true"
       apply_with_radius="true"
       only_selected="false"
       hide_knots="false" /><inkscape:path-effect
       effect="fillet_chamfer"
       id="path-effect4"
       is_visible="true"
       lpeversion="1"
       nodesatellites_param="F,0,0,1,0,6,0,1 @ F,0,0,1,0,6,0,1 @ F,0,0,1,0,6,0,1 @ F,0,0,1,0,6,0,1"
       radius="6"
       unit="mm"
       method="auto"
       mode="F"
       chamfer_steps="1"
       flexible="false"
       use_knot_distance="true"
       apply_no_radius="true"
       apply_with_radius="true"
       only_selected="false"
       hide_knots="false" /></defs><g
     inkscape:label="Layer 1"
     inkscape:groupmode="layer"
     id="layer1"
     transform="translate(-96.737773,-110.82903)"><path
       style="fill:#4ba6e7;fill-opacity:1;stroke:none;stroke-width:0.0759096"
       id="rect1"
       width="9.4240913"
       height="9.4240904"
       x="96.737778"
       y="110.82903"
       sodipodi:type="rect"
       transform="matrix(1.0080547,0,0,1.0080548,-0.77919822,-0.892711)"
       inkscape:path-effect="#path-effect2"
       d="m 98.325278,110.82903 h 6.249092 a 1.5875,1.5875 45 0 1 1.5875,1.5875 l 0,6.24909 a 1.5875,1.5875 135 0 1 -1.5875,1.5875 h -6.249092 a 1.5875,1.5875 45 0 1 -1.5875,-1.5875 l 0,-6.24909 a 1.5875,1.5875 135 0 1 1.5875,-1.5875 z" /><path
       fill="#197fc4"
       d="m 105.13964,117.11377 v -3.41766 a 0.6107744,0.66828187 0 0 0 -0.60468,-0.66928 h -1.77329 a 1.3043244,1.4271331 0 0 0 -1.27298,1.1168 1.3055417,1.4284649 0 0 0 -1.27297,-1.1168 h -1.771163 c -0.335972,0 -0.608648,0.299 -0.608648,0.66761 v 3.41933 c 0,0.36861 0.272676,0.66761 0.608648,0.66761 h 1.137553 c 1.29581,0 1.68259,0.33965 1.86763,1.04321 0.01,0.039 0.066,0.039 0.076,0 0.18655,-0.7039 0.57333,-1.04321 1.86792,-1.04321 h 1.13725 c 0.33597,0 0.60865,-0.299 0.60865,-0.66761 z m -4.23402,-0.39525 h -0.001 a 0.0441267,0.04828145 0 0 1 -0.0444,0.0486 h -2.032574 a 0.0441267,0.04828145 0 0 1 -0.0444,-0.0486 v -0.31864 c 0,-0.0262 0.01886,-0.0485 0.0444,-0.0485 h 2.033784 c 0.024,0 0.0444,0.0206 0.0444,0.0485 z m 0,-0.84709 h -0.001 a 0.0441267,0.04828145 0 0 1 -0.0444,0.0486 h -2.032574 a 0.0441267,0.04828145 0 0 1 -0.0444,-0.0486 v -0.31831 c 0,-0.0262 0.01886,-0.0486 0.0444,-0.0486 h 2.033784 c 0.024,0 0.0444,0.0206 0.0444,0.0486 z m 0,-0.84708 h -0.001 a 0.0441267,0.04828145 0 0 1 -0.0444,0.0486 h -2.032574 a 0.0441267,0.04828145 0 0 1 -0.0444,-0.0486 v -0.31867 c 0,-0.0262 0.01886,-0.0486 0.0444,-0.0486 h 2.033784 c 0.024,0 0.0444,0.0206 0.0444,0.0486 z m 3.28758,1.69284 h -0.001 a 0.0441267,0.04828145 0 0 1 -0.0444,0.0486 h -2.03257 a 0.0441267,0.04828145 0 0 1 -0.0444,-0.0486 v -0.31832 c 0,-0.0262 0.0188,-0.0485 0.0444,-0.0485 h 2.03379 c 0.024,0 0.0444,0.0206 0.0444,0.0485 z m 0,-0.84709 h -0.001 a 0.0441267,0.04828145 0 0 1 -0.0444,0.0486 h -2.03257 a 0.0441267,0.04828145 0 0 1 -0.0444,-0.0486 v -0.31832 c 0,-0.0262 0.0188,-0.0486 0.0444,-0.0486 h 2.03379 c 0.024,0 0.0444,0.0206 0.0444,0.0486 z m 0,-0.84741 h -0.001 a 0.0441267,0.04828145 0 0 1 -0.0444,0.0486 h -2.03257 a 0.0441267,0.04828145 0 0 1 -0.0444,-0.0486 v -0.31701 c 0,-0.0262 0.0188,-0.0486 0.0444,-0.0486 h 2.03379 c 0.024,0 0.0444,0.0206 0.0444,0.0486 z"
       id="path1"
       style="fill:#ffffff;fill-opacity:1;stroke-width:0.318326" /></g></svg>
