<?xml version="1.0" encoding="UTF-8" standalone="no"?>
<!-- Created with Inkscape (http://www.inkscape.org/) -->

<svg
   width="0.5905512in"
   height="0.5905512in"
   viewBox="0 0 15.00003 15.00003"
   version="1.1"
   id="svg1"
   xml:space="preserve"
   inkscape:version="1.3.2 (091e20e, 2023-11-25, custom)"
   sodipodi:docname="SQ-LOGO.svg"
   xmlns:inkscape="http://www.inkscape.org/namespaces/inkscape"
   xmlns:sodipodi="http://sodipodi.sourceforge.net/DTD/sodipodi-0.dtd"
   xmlns:xlink="http://www.w3.org/1999/xlink"
   xmlns="http://www.w3.org/2000/svg"
   xmlns:svg="http://www.w3.org/2000/svg"><sodipodi:namedview
     id="namedview1"
     pagecolor="#ffffff"
     bordercolor="#000000"
     borderopacity="0.25"
     inkscape:showpageshadow="2"
     inkscape:pageopacity="0.0"
     inkscape:pagecheckerboard="0"
     inkscape:deskcolor="#d1d1d1"
     inkscape:document-units="mm"
     inkscape:zoom="5.858249"
     inkscape:cx="8.5349735"
     inkscape:cy="6.4865799"
     inkscape:window-width="1920"
     inkscape:window-height="1018"
     inkscape:window-x="-6"
     inkscape:window-y="-6"
     inkscape:window-maximized="1"
     inkscape:current-layer="layer1" /><defs
     id="defs1"><linearGradient
       id="swatch16"><stop
         style="stop-color:#1caaf8;stop-opacity:1;"
         offset="0"
         id="stop16" /></linearGradient><inkscape:path-effect
       effect="fillet_chamfer"
       id="path-effect2"
       is_visible="true"
       lpeversion="1"
       nodesatellites_param="F,0,0,1,0,1.5875,0,1 @ F,0,0,1,0,1.5875,0,1 @ F,0,0,1,0,1.5875,0,1 @ F,0,0,1,0,1.5875,0,1"
       radius="6"
       unit="px"
       method="auto"
       mode="F"
       chamfer_steps="1"
       flexible="false"
       use_knot_distance="true"
       apply_no_radius="true"
       apply_with_radius="true"
       only_selected="false"
       hide_knots="false" /><inkscape:path-effect
       effect="fillet_chamfer"
       id="path-effect1"
       is_visible="true"
       lpeversion="1"
       nodesatellites_param="F,0,0,1,0,1.3229167,0,1 @ F,0,0,1,0,1.3229167,0,1 @ F,0,0,1,0,1.3229167,0,1 @ F,0,0,1,0,1.3229167,0,1"
       radius="5"
       unit="px"
       method="auto"
       mode="F"
       chamfer_steps="1"
       flexible="false"
       use_knot_distance="true"
       apply_no_radius="true"
       apply_with_radius="true"
       only_selected="false"
       hide_knots="false" /><inkscape:path-effect
       effect="fillet_chamfer"
       id="path-effect4"
       is_visible="true"
       lpeversion="1"
       nodesatellites_param="F,0,0,1,0,6,0,1 @ F,0,0,1,0,6,0,1 @ F,0,0,1,0,6,0,1 @ F,0,0,1,0,6,0,1"
       radius="6"
       unit="mm"
       method="auto"
       mode="F"
       chamfer_steps="1"
       flexible="false"
       use_knot_distance="true"
       apply_no_radius="true"
       apply_with_radius="true"
       only_selected="false"
       hide_knots="false" /><filter
       id="filter0_d"
       x="-6.25"
       y="-4.1666698"
       width="112.5"
       height="112.5"
       filterUnits="userSpaceOnUse"
       color-interpolation-filters="sRGB"><feFlood
         flood-opacity="0"
         result="BackgroundImageFix"
         id="feFlood8" /><feColorMatrix
         in="SourceAlpha"
         type="matrix"
         values="0 0 0 0 0 0 0 0 0 0 0 0 0 0 0 0 0 0 127 0"
         id="feColorMatrix8" /><feOffset
         dy="2.08333"
         id="feOffset8" /><feGaussianBlur
         stdDeviation="3.125"
         id="feGaussianBlur8" /><feColorMatrix
         type="matrix"
         values="0 0 0 0 0 0 0 0 0 0 0 0 0 0 0 0 0 0 0.15 0"
         id="feColorMatrix9" /><feBlend
         mode="normal"
         in2="BackgroundImageFix"
         result="effect1_dropShadow"
         id="feBlend9" /><feBlend
         mode="normal"
         in="SourceGraphic"
         in2="effect1_dropShadow"
         result="shape"
         id="feBlend10" /></filter><filter
       id="filter1_d"
       x="-8.3943596"
       y="15.6951"
       width="116.728"
       height="92.637604"
       filterUnits="userSpaceOnUse"
       color-interpolation-filters="sRGB"><feFlood
         flood-opacity="0"
         result="BackgroundImageFix"
         id="feFlood10" /><feColorMatrix
         in="SourceAlpha"
         type="matrix"
         values="0 0 0 0 0 0 0 0 0 0 0 0 0 0 0 0 0 0 127 0"
         id="feColorMatrix10" /><feOffset
         id="feOffset10" /><feGaussianBlur
         stdDeviation="4.16667"
         id="feGaussianBlur10" /><feColorMatrix
         type="matrix"
         values="0 0 0 0 0 0 0 0 0 0 0 0 0 0 0 0 0 0 0.25 0"
         id="feColorMatrix11" /><feBlend
         mode="overlay"
         in2="BackgroundImageFix"
         result="effect1_dropShadow"
         id="feBlend11" /><feBlend
         mode="normal"
         in="SourceGraphic"
         in2="effect1_dropShadow"
         result="shape"
         id="feBlend12" /></filter><filter
       id="filter2_d"
       x="60.416698"
       y="-8.3334599"
       width="47.916698"
       height="116.667"
       filterUnits="userSpaceOnUse"
       color-interpolation-filters="sRGB"><feFlood
         flood-opacity="0"
         result="BackgroundImageFix"
         id="feFlood12" /><feColorMatrix
         in="SourceAlpha"
         type="matrix"
         values="0 0 0 0 0 0 0 0 0 0 0 0 0 0 0 0 0 0 127 0"
         id="feColorMatrix12" /><feOffset
         id="feOffset12" /><feGaussianBlur
         stdDeviation="4.16667"
         id="feGaussianBlur12" /><feColorMatrix
         type="matrix"
         values="0 0 0 0 0 0 0 0 0 0 0 0 0 0 0 0 0 0 0.25 0"
         id="feColorMatrix13" /><feBlend
         mode="overlay"
         in2="BackgroundImageFix"
         result="effect1_dropShadow"
         id="feBlend13" /><feBlend
         mode="normal"
         in="SourceGraphic"
         in2="effect1_dropShadow"
         result="shape"
         id="feBlend14" /></filter><linearGradient
       id="paint0_linear"
       x1="49.938999"
       y1="-5.1979201e-05"
       x2="49.938999"
       y2="100.001"
       gradientUnits="userSpaceOnUse"><stop
         stop-color="white"
         id="stop14" /><stop
         offset="1"
         stop-color="white"
         stop-opacity="0"
         id="stop15" /></linearGradient><clipPath
       id="clip0"><rect
         width="100"
         height="100"
         fill="#ffffff"
         id="rect15"
         x="0"
         y="0" /></clipPath><radialGradient
       inkscape:collect="always"
       xlink:href="#swatch16"
       id="radialGradient16"
       cx="101.44982"
       cy="115.54108"
       fx="101.44982"
       fy="115.54108"
       r="4.7120457"
       gradientTransform="translate(0,1.1692221e-5)"
       gradientUnits="userSpaceOnUse" /></defs><g
     inkscape:label="Layer 1"
     inkscape:groupmode="layer"
     id="layer1"
     transform="translate(-109.97234,-117.27023)"><circle
       style="fill:#042847;fill-opacity:1;stroke:none;stroke-width:0.320177"
       id="path16"
       cx="117.47235"
       cy="124.77024"
       r="7.5000153" /><path
       style="fill:url(#radialGradient16);stroke:none;stroke-width:0.0759096"
       id="rect1"
       width="9.4240913"
       height="9.4240904"
       x="96.737778"
       y="110.82903"
       sodipodi:type="rect"
       transform="matrix(1.0080547,0,0,1.0080548,15.205381,8.2984989)"
       inkscape:path-effect="#path-effect2"
       d="m 98.325278,110.82903 h 6.249092 a 1.5875,1.5875 45 0 1 1.5875,1.5875 l 0,6.24909 a 1.5875,1.5875 135 0 1 -1.5875,1.5875 h -6.249092 a 1.5875,1.5875 45 0 1 -1.5875,-1.5875 l 0,-6.24909 a 1.5875,1.5875 135 0 1 1.5875,-1.5875 z" /><g
       style="fill:none"
       id="g1"
       transform="matrix(0.06985704,0,0,0.06985704,113.9795,120.45439)"><g
         filter="url(#filter0_d)"
         id="g7"
         clip-path="url(#clipPath15)"><mask
           id="mask0"
           mask-type="alpha"
           maskUnits="userSpaceOnUse"
           x="0"
           y="0"
           width="100"
           height="100"><path
             fill-rule="evenodd"
             clip-rule="evenodd"
             d="m 70.9119,99.5723 c 1.575,0.6167 3.3709,0.5777 4.9606,-0.1916 L 96.4604,89.4231 C 98.624,88.3771 100,86.1762 100,83.7616 V 16.2392 c 0,-2.4145 -1.376,-4.6154 -3.5396,-5.6618 L 75.8725,0.619067 C 73.7862,-0.389991 71.3446,-0.142885 69.5135,1.19527 69.252,1.38636 69.0028,1.59985 68.769,1.83502 L 29.3551,37.9795 12.1872,24.88 C 10.5891,23.6607 8.35365,23.7606 6.86938,25.1178 l -5.50636,5.0347 c -1.815623,1.6602 -1.817603,4.5312 -0.00448,6.1941 L 16.2471,50.0001 1.35854,63.6536 c -1.813123,1.6628 -1.811143,4.534 0.00448,6.1941 l 5.50636,5.0347 c 1.48427,1.3571 3.71972,1.4576 5.31782,0.2377 L 29.3551,62.0207 68.769,98.1651 c 0.6235,0.6272 1.3556,1.0994 2.1429,1.4072 z m 4.1033,-72.391 -29.906,22.8188 29.906,22.8188 z"
             fill="#ffffff"
             id="path1-3" /></mask><g
           mask="url(#mask0)"
           id="g6"><path
             d="M 96.4614,10.593 75.8567,0.62085 c -2.385,-1.154287 -5.2352,-0.6674006 -7.1069,1.21407 L 1.29834,63.6535 c -1.814275,1.6629 -1.812192,4.534 0.00447,6.1941 l 5.50969,5.0347 c 1.48521,1.3572 3.722,1.4567 5.321,0.2378 L 93.3604,13.18 C 96.0854,11.102 100,13.0557 100,16.4939 V 16.2535 C 100,13.84 98.6239,11.64 96.4614,10.593 Z"
             fill="#d9d9d9"
             id="path2" /><g
             filter="url(#filter1_d)"
             id="g3"><path
               d="m 96.4614,89.4074 -20.6047,9.9723 c -2.385,1.1543 -5.2352,0.6673 -7.1069,-1.2146 L 1.29834,36.3464 c -1.814275,-1.6627 -1.812192,-4.5339 0.00447,-6.194 L 6.8125,25.1177 c 1.48521,-1.3572 3.722,-1.4571 5.321,-0.2377 L 93.3604,86.8201 C 96.0854,88.8985 100,86.9447 100,83.5061 v 0.2409 c 0,2.4134 -1.3761,4.6133 -3.5386,5.6604 z"
               fill="#e6e6e6"
               id="path3" /></g><g
             filter="url(#filter2_d)"
             id="g4"><path
               d="M 75.8578,99.3807 C 73.4721,100.535 70.6219,100.047 68.75,98.1651 71.0564,100.483 75,98.8415 75,95.5631 V 4.43709 c 0,-3.27857 -3.9435,-4.920583 -6.25,-2.60217 1.8719,-1.8816814 4.7221,-2.369196 7.1078,-1.215957 L 96.4583,10.5773 C 98.6229,11.6237 100,13.8246 100,16.2391 v 67.5225 c 0,2.4146 -1.3771,4.6145 -3.5417,5.6615 z"
               fill="#ffffff"
               id="path4" /></g><g
             style="mix-blend-mode:overlay"
             opacity="0.25"
             id="g5"><path
               style="mix-blend-mode:overlay;fill:url(#paint0_linear)"
               opacity="0.25"
               fill-rule="evenodd"
               clip-rule="evenodd"
               d="m 70.8508,99.5723 c 1.575,0.6167 3.371,0.5777 4.9607,-0.1916 L 96.4,89.4231 c 2.1635,-1.046 3.5386,-3.2469 3.5386,-5.6615 V 16.2391 c 0,-2.4144 -1.3751,-4.6152 -3.5386,-5.6617 L 75.8115,0.618974 c -2.0863,-1.009059 -4.528,-0.761845 -6.359,0.576206 -0.2616,0.19119 -0.5107,0.40458 -0.7446,0.63975 L 29.2941,37.9795 12.1261,24.88 C 10.528,23.6606 8.2926,23.7605 6.80833,25.1177 l -5.50635,5.0347 c -1.81552,1.6602 -1.817605,4.5313 -0.00448,6.1941 L 16.186,50 1.2975,63.6536 c -1.813125,1.6628 -1.81104,4.5339 0.00448,6.194 l 5.50635,5.0348 c 1.48427,1.3571 3.71967,1.4566 5.31777,0.2377 l 17.168,-13.0994 39.4138,36.1444 c 0.6236,0.6272 1.3556,1.0994 2.1429,1.4072 z M 74.9542,27.1812 45.0481,50 74.9542,72.8188 Z"
               fill="url(#paint0_linear)"
               id="path5" /></g></g></g></g><text
       xml:space="preserve"
       style="font-size:1.41111px;font-family:'FHA Sign DeVinneNC';-inkscape-font-specification:'FHA Sign DeVinneNC';fill:#042847;fill-opacity:1;stroke:none;stroke-width:0.264584"
       x="114.28874"
       y="128.82701"
       id="text17"><tspan
         sodipodi:role="line"
         id="tspan17"
         style="font-style:normal;font-variant:normal;font-weight:bold;font-stretch:normal;font-size:1.41111px;font-family:'Century Gothic';-inkscape-font-specification:'Century Gothic Bold';fill:#ffffff;fill-opacity:1;stroke:none;stroke-width:0.264584;stroke-opacity:1"
         x="114.28874"
         y="128.82701">SQUARED</tspan></text></g></svg>
